<svg width="16" height="16" viewBox="0 0 16 16" fill="none" xmlns="http://www.w3.org/2000/svg">
<g id="Group">
<path id="Vector (Stroke)" fill-rule="evenodd" clip-rule="evenodd" d="M7.66666 0.250005C8.6408 0.24887 9.60557 0.440194 10.5056 0.812994C11.4055 1.18579 12.223 1.73271 12.911 2.42235C13.6006 3.11035 14.1475 3.92781 14.5203 4.82779C14.8931 5.72777 15.0844 6.69253 15.0833 7.66666C15.0845 8.6408 14.8931 9.60557 14.5203 10.5056C14.1475 11.4055 13.6006 12.223 12.911 12.911C12.223 13.6006 11.4055 14.1475 10.5056 14.5203C9.60556 14.8931 8.64079 15.0845 7.66665 15.0833C6.69252 15.0844 5.72777 14.8931 4.82779 14.5203C3.92788 14.1475 3.11048 13.6007 2.4225 12.9112C1.7328 12.2231 1.18582 11.4056 0.812994 10.5056C0.440193 9.60556 0.248869 8.64079 0.250005 7.66665C0.248891 6.69252 0.440224 5.72777 0.81302 4.82779C1.18581 3.92781 1.73272 3.11035 2.42234 2.42234C3.11035 1.73272 3.92781 1.18581 4.82779 0.81302C5.72777 0.440223 6.69253 0.24889 7.66666 0.250005Z" fill="#D3D3D3"/>
</g>
</svg>
