<svg width="25" height="25" viewBox="0 0 25 25" fill="none" xmlns="http://www.w3.org/2000/svg">
<circle cx="12.3333" cy="12.6987" r="12" fill="#EAEAEA"/>
<circle cx="12.3333" cy="12.6989" r="8.57143" fill="white"/>
<path d="M11.885 8.46416C12.0684 8.09253 12.5983 8.09253 12.7817 8.46416L13.7285 10.3825C13.8013 10.53 13.9421 10.6323 14.1049 10.656L16.2219 10.9636C16.632 11.0232 16.7958 11.5272 16.499 11.8165L14.9672 13.3097C14.8493 13.4245 14.7955 13.59 14.8234 13.7522L15.185 15.8606C15.255 16.2691 14.8263 16.5806 14.4595 16.3877L12.566 15.3923C12.4204 15.3157 12.2463 15.3157 12.1007 15.3923L10.2072 16.3877C9.84038 16.5806 9.41166 16.2691 9.48171 15.8606L9.84334 13.7522C9.87116 13.59 9.81738 13.4245 9.69954 13.3097L8.16768 11.8165C7.87092 11.5272 8.03467 11.0232 8.44478 10.9636L10.5618 10.656C10.7246 10.6323 10.8654 10.53 10.9382 10.3825L11.885 8.46416Z" fill="#D3D3D3"/>
</svg>
