<svg width="25" height="25" viewBox="0 0 25 25" fill="none" xmlns="http://www.w3.org/2000/svg">
<circle cx="12.3606" cy="12.3979" r="12" fill="#FFDE33"/>
<circle cx="12.3606" cy="12.3979" r="8" fill="#FFC411"/>
<path d="M11.9124 8.50664C12.0958 8.13501 12.6258 8.13501 12.8092 8.50664L13.6551 10.2208C13.728 10.3684 13.8688 10.4706 14.0316 10.4943L15.9233 10.7692C16.3334 10.8288 16.4971 11.3328 16.2004 11.622L14.8316 12.9563C14.7137 13.0712 14.6599 13.2367 14.6878 13.3989L15.0109 15.2829C15.081 15.6913 14.6522 16.0028 14.2854 15.81L12.5935 14.9205C12.4478 14.8439 12.2738 14.8439 12.1281 14.9205L10.4362 15.81C10.0693 16.0028 9.64063 15.6913 9.71068 15.2829L10.0338 13.3989C10.0616 13.2367 10.0079 13.0712 9.89002 12.9563L8.52119 11.622C8.22444 11.3328 8.38819 10.8288 8.7983 10.7692L10.69 10.4943C10.8528 10.4706 10.9936 10.3684 11.0664 10.2208L11.9124 8.50664Z" fill="white"/>
</svg>
