<svg width="16" height="16" viewBox="0 0 16 16" fill="none" xmlns="http://www.w3.org/2000/svg">
<g id="Group">
<path id="Vector (Stroke)" fill-rule="evenodd" clip-rule="evenodd" d="M7.66666 0.250005C8.6408 0.24887 9.60557 0.440194 10.5056 0.812994C11.4055 1.18579 12.223 1.73271 12.911 2.42235C13.6006 3.11035 14.1475 3.92781 14.5203 4.82779C14.8931 5.72777 15.0844 6.69253 15.0833 7.66666C15.0845 8.6408 14.8931 9.60557 14.5203 10.5056C14.1475 11.4055 13.6006 12.223 12.911 12.911C12.223 13.6006 11.4055 14.1475 10.5056 14.5203C9.60556 14.8931 8.64079 15.0845 7.66665 15.0833C6.69252 15.0844 5.72777 14.8931 4.82779 14.5203C3.92788 14.1475 3.11048 13.6007 2.4225 12.9112C1.7328 12.2231 1.18582 11.4056 0.812994 10.5056C0.440193 9.60556 0.248869 8.64079 0.250005 7.66665C0.248891 6.69252 0.440224 5.72777 0.81302 4.82779C1.18581 3.92781 1.73272 3.11035 2.42234 2.42234C3.11035 1.73272 3.92781 1.18581 4.82779 0.81302C5.72777 0.440223 6.69253 0.24889 7.66666 0.250005ZM7.66666 0.250005C7.66698 0.250005 7.6673 0.250006 7.66762 0.250006L7.66667 1.00001L7.66569 0.250006C7.66602 0.250006 7.66634 0.250005 7.66666 0.250005ZM0.250005 7.66665C0.250005 7.66633 0.250006 7.66601 0.250006 7.66569L1.00001 7.66667L0.250006 7.66762C0.250006 7.6673 0.250005 7.66697 0.250005 7.66665ZM7.66665 15.0833C7.66633 15.0833 7.66601 15.0833 7.66569 15.0833L7.66667 14.3333L7.66762 15.0833C7.6673 15.0833 7.66697 15.0833 7.66665 15.0833ZM15.0833 7.66666C15.0833 7.66698 15.0833 7.6673 15.0833 7.66762L14.3333 7.66667L15.0833 7.66569C15.0833 7.66602 15.0833 7.66634 15.0833 7.66666ZM9.93151 2.19881C9.21382 1.90152 8.44446 1.749 7.66764 1.75001H7.66571C6.88889 1.74901 6.11952 1.90155 5.40183 2.19883C4.68414 2.49612 4.03227 2.9323 3.48369 3.48231L3.48231 3.48369C2.9323 4.03227 2.49612 4.68414 2.19883 5.40183C1.90155 6.11952 1.74901 6.88889 1.75001 7.66571V7.66764C1.749 8.44446 1.90152 9.21382 2.19881 9.93151C2.49609 10.6492 2.93228 11.3011 3.4823 11.8496L3.48369 11.851C4.03227 12.401 4.68414 12.8372 5.40183 13.1345C6.11952 13.4318 6.88889 13.5843 7.66571 13.5833H7.66764C8.44446 13.5843 9.21382 13.4318 9.93151 13.1345C10.6492 12.8372 11.3011 12.4011 11.8496 11.851L11.851 11.8496C12.4011 11.3011 12.8372 10.6492 13.1345 9.93151C13.4318 9.21382 13.5843 8.44446 13.5833 7.66764V7.66571C13.5843 6.88889 13.4318 6.11952 13.1345 5.40183C12.8372 4.68414 12.401 4.03227 11.851 3.48369L11.8496 3.4823C11.3011 2.93228 10.6492 2.49609 9.93151 2.19881Z" fill="#D3D3D3"/>
<path id="Vector (Stroke)_2" fill-rule="evenodd" clip-rule="evenodd" d="M11.5303 5.13373C11.8232 5.42663 11.8232 5.9015 11.5303 6.19439L7.53033 10.1944C7.23744 10.4873 6.76256 10.4873 6.46967 10.1944L4.46967 8.19439C4.17678 7.9015 4.17678 7.42662 4.46967 7.13373C4.76256 6.84084 5.23744 6.84084 5.53033 7.13373L7 8.6034L10.4697 5.13373C10.7626 4.84084 11.2374 4.84084 11.5303 5.13373Z" fill="#D3D3D3"/>
</g>
</svg>
