<svg width="16" height="16" viewBox="0 0 16 16" fill="none" xmlns="http://www.w3.org/2000/svg">
<g id="Mask group">
<mask id="mask0_2600_38821" style="mask-type:luminance" maskUnits="userSpaceOnUse" x="0" y="0" width="16" height="16">
<g id="Group">
<g id="Group_2">
<path id="Vector" d="M7.66667 14.3333C8.54231 14.3345 9.40955 14.1625 10.2185 13.8274C11.0275 13.4923 11.7623 13.0007 12.3807 12.3807C13.0007 11.7623 13.4923 11.0275 13.8274 10.2185C14.1625 9.40955 14.3345 8.54231 14.3333 7.66667C14.3344 6.79103 14.1625 5.9238 13.8274 5.11481C13.4923 4.30583 13.0006 3.57104 12.3807 2.95267C11.7623 2.33268 11.0275 1.841 10.2185 1.5059C9.40955 1.1708 8.54231 0.998871 7.66667 1.00001C6.79103 0.998889 5.9238 1.17082 5.11481 1.50593C4.30583 1.84103 3.57104 2.3327 2.95267 2.95267C2.3327 3.57104 1.84103 4.30583 1.50593 5.11481C1.17082 5.9238 0.998889 6.79103 1.00001 7.66667C0.998871 8.54231 1.1708 9.40955 1.5059 10.2185C1.841 11.0275 2.33268 11.7623 2.95267 12.3807C3.57104 13.0006 4.30583 13.4923 5.11481 13.8274C5.9238 14.1625 6.79103 14.3344 7.66667 14.3333Z" fill="white" stroke="white" stroke-width="2" stroke-linejoin="round"/>
<path id="Vector_2" d="M5 7.66406L7 9.66406L11 5.66406" stroke="black" stroke-width="2" stroke-linecap="round" stroke-linejoin="round"/>
</g>
</g>
</mask>
<g mask="url(#mask0_2600_38821)">
<path id="Vector_3" d="M-0.332031 -0.335938H15.668V15.664H-0.332031V-0.335938Z" fill="#0F7375"/>
</g>
</g>
</svg>
