<svg width="65" height="64" viewBox="0 0 65 64" fill="none" xmlns="http://www.w3.org/2000/svg">
<circle cx="32.5" cy="32" r="32" fill="#F1F1F1"/>
<path d="M20.735 49.6611C20.9494 50.4613 21.7719 50.9362 22.5721 50.7218C23.3723 50.5074 23.8472 49.6849 23.6328 48.8847L20.735 49.6611ZM18.2503 40.3882L20.735 49.6611L23.6328 48.8847L21.1481 39.6118L18.2503 40.3882Z" fill="#272727"/>
<path d="M50.1016 25.5996L54.8548 24.9316" stroke="#053A3C" stroke-width="3" stroke-linecap="round"/>
<path d="M54.7109 33.3232L50.0969 32.0002" stroke="#053A3C" stroke-width="3" stroke-linecap="round"/>
<path d="M47.6992 19.2002L51.8561 16.8002" stroke="#053A3C" stroke-width="3" stroke-linecap="round"/>
<path d="M44.4256 25.636C45.1118 28.1967 43.5922 30.8287 41.0315 31.5148L39.486 31.9289L37.0014 22.656L38.5469 22.2419C41.1075 21.5558 43.7395 23.0754 44.4256 25.636Z" fill="#053A3C"/>
<path fill-rule="evenodd" clip-rule="evenodd" d="M34.4878 17.6526C33.8653 15.3297 30.999 14.4978 29.2296 16.1264L19.8516 24.7585C19.4713 25.1085 19.0119 25.3613 18.5127 25.495L14.8803 26.4683C10.8372 27.5517 8.40231 31.5751 9.44189 35.4548C10.4815 39.3346 14.6018 41.6015 18.6449 40.5182L22.2773 39.5449C22.7766 39.4111 23.3008 39.4002 23.8051 39.5132L36.2428 42.2998C38.5894 42.8256 40.6558 40.6719 40.0333 38.349L34.4878 17.6526Z" stroke="#272727" stroke-width="3"/>
</svg>
