<svg width="64" height="64" viewBox="0 0 64 64" fill="none" xmlns="http://www.w3.org/2000/svg">
<circle cx="32" cy="32" r="32" fill="#F1F1F1"/>
<path d="M16.2891 43H24.8605V44.7143C24.8605 46.9234 23.0696 48.7143 20.8605 48.7143H20.2891C18.0799 48.7143 16.2891 46.9234 16.2891 44.7143V43Z" stroke="#272727" stroke-width="3"/>
<path d="M39.1406 43H47.7121V44.7143C47.7121 46.9234 45.9212 48.7143 43.7121 48.7143H43.1406C40.9315 48.7143 39.1406 46.9234 39.1406 44.7143V43Z" stroke="#272727" stroke-width="3"/>
<path d="M17.0575 27.5675L17.5333 27.282L17.7087 26.7556L18.4189 24.6252L18.419 24.6248L18.4192 24.6243L18.4193 24.6239L18.4195 24.6234L18.4197 24.6229L18.4198 24.6224L18.42 24.6219L18.4202 24.6214L18.4204 24.6209L18.4206 24.6203L18.4208 24.6197L18.421 24.6192L18.4212 24.6186L18.4214 24.618L18.4216 24.6174L18.4218 24.6168L18.4221 24.6161L18.4223 24.6155L18.4225 24.6148L18.4228 24.6141L18.423 24.6134L18.4232 24.6127L18.4235 24.612L18.4238 24.6112L18.424 24.6105L18.4243 24.6097L18.4246 24.6089L18.4249 24.6081L18.4251 24.6073L18.4254 24.6065L18.4257 24.6056L18.426 24.6048L18.4263 24.6039L18.4267 24.603L18.427 24.6021L18.4273 24.6012L18.4276 24.6002L18.428 24.5993L18.4283 24.5983L18.4287 24.5973L18.429 24.5963L18.4294 24.5952L18.4298 24.5942L18.4301 24.5931L18.4305 24.592L18.4309 24.5909L18.4313 24.5898L18.4317 24.5887L18.4321 24.5875L18.4325 24.5864L18.4329 24.5852L18.4334 24.5839L18.4338 24.5827L18.4342 24.5815L18.4347 24.5802L18.4351 24.5789L18.4356 24.5776L18.4361 24.5763L18.4365 24.5749L18.437 24.5735L18.4375 24.5721L18.438 24.5707L18.4385 24.5693L18.439 24.5678L18.4395 24.5664L18.4401 24.5649L18.4406 24.5634L18.4411 24.5618L18.4417 24.5603L18.4423 24.5587L18.4428 24.5571L18.4434 24.5555L18.444 24.5538L18.4446 24.5521L18.4451 24.5505L18.4458 24.5487L18.4464 24.547L18.447 24.5452L18.4476 24.5435L18.4482 24.5417L18.4489 24.5398L18.4495 24.538L18.4502 24.5361L18.4509 24.5342L18.4515 24.5323L18.4522 24.5303L18.4529 24.5284L18.4536 24.5264L18.4543 24.5243L18.4551 24.5223L18.4558 24.5202L18.4565 24.5181L18.4573 24.516L18.458 24.5139L18.4588 24.5117L18.4596 24.5095L18.4603 24.5073L18.4611 24.505L18.4619 24.5028L18.4627 24.5005L18.4636 24.4981L18.4644 24.4958L18.4652 24.4934L18.4661 24.491L18.4669 24.4886L18.4678 24.4861L18.4687 24.4836L18.4695 24.4811L18.4704 24.4786L18.4713 24.476L18.4723 24.4734L18.4732 24.4708L18.4741 24.4681L18.4751 24.4654L18.476 24.4627L18.477 24.46L18.4779 24.4572L18.4789 24.4544L18.4799 24.4516L18.4809 24.4488L18.4819 24.4459L18.483 24.443L18.484 24.44L18.485 24.437L18.4861 24.434L18.4872 24.431L18.4882 24.428L18.4893 24.4249L18.4904 24.4217L18.4915 24.4186L18.4927 24.4154L18.4938 24.4122L18.4949 24.4089L18.4961 24.4057L18.4972 24.4024L18.4984 24.399L18.4996 24.3956L18.5008 24.3922L18.502 24.3888L18.5032 24.3853L18.5045 24.3818L18.5057 24.3783L18.507 24.3747L18.5082 24.3711L18.5095 24.3675L18.5108 24.3639L18.5121 24.3602L18.5134 24.3564L18.5147 24.3527L18.5161 24.3489L18.5174 24.345L18.5188 24.3412L18.5201 24.3373L18.5215 24.3333L18.5229 24.3294L18.5243 24.3254L18.5257 24.3213L18.5272 24.3173L18.5286 24.3132L18.5301 24.309L18.5315 24.3048L18.533 24.3006L18.5345 24.2964L18.536 24.2921L18.5375 24.2878L18.5391 24.2834L18.5406 24.279L18.5422 24.2746L18.5437 24.2702L18.5453 24.2657L18.5469 24.2611L18.5485 24.2565L18.5502 24.2519L18.5518 24.2473L18.5534 24.2426L18.5551 24.2379L18.5568 24.2331L18.5585 24.2283L18.5602 24.2235L18.5619 24.2186L18.5636 24.2137L18.5653 24.2088L18.5671 24.2038L18.5689 24.1987L18.5707 24.1937L18.5724 24.1886L18.5743 24.1834L18.5761 24.1782L18.5779 24.173L18.5798 24.1678L18.5816 24.1624L18.5835 24.1571L18.5854 24.1517L18.5873 24.1463L18.5892 24.1408L18.5912 24.1353L18.5931 24.1298L18.5951 24.1242L18.5971 24.1186L18.5991 24.1129L18.6011 24.1072L18.6031 24.1015L18.6051 24.0957L18.6072 24.0898L18.6092 24.084L18.6113 24.078L18.6134 24.0721L18.6155 24.0661L18.6177 24.06L18.6198 24.054L18.622 24.0478L18.6241 24.0417L18.6263 24.0354L18.6285 24.0292L18.6307 24.0229L18.633 24.0165L18.6352 24.0102L18.6375 24.0037L18.6397 23.9972L18.642 23.9907L18.6443 23.9842L18.6467 23.9776L18.649 23.9709L18.6514 23.9642L18.6537 23.9575L18.6561 23.9507L18.6585 23.9438L18.6609 23.937L18.6634 23.93L18.6658 23.9231L18.6683 23.9161L18.6708 23.909L18.6733 23.9019L18.6758 23.8948L18.6783 23.8876L18.6809 23.8803L18.6834 23.873L18.686 23.8657L18.6886 23.8583L18.6912 23.8509L18.6939 23.8434L18.6965 23.8359L18.6992 23.8283L18.7019 23.8207L18.7046 23.813L18.7073 23.8053L18.71 23.7975L18.7128 23.7897L18.7155 23.7818L18.7183 23.7739L18.7211 23.766L18.7239 23.758L18.7267 23.7499L18.7296 23.7418L18.7325 23.7336L18.7354 23.7254L18.7383 23.7172L18.7412 23.7089L18.7441 23.7005L18.7471 23.6921L18.75 23.6837L18.753 23.6752L18.756 23.6666L18.7591 23.658L18.7621 23.6494L18.7652 23.6406L18.7683 23.6319L18.7714 23.6231L18.7745 23.6142L18.7776 23.6053L18.7808 23.5963L18.7839 23.5873L18.7871 23.5783L18.7903 23.5691L18.7936 23.56L18.7968 23.5507L18.8001 23.5415L18.8034 23.5321L18.8067 23.5228L18.81 23.5133L18.8133 23.5038L18.8167 23.4943L18.82 23.4847L18.8234 23.475L18.8268 23.4653L18.8303 23.4556L18.8337 23.4458L18.8372 23.4359L18.8407 23.426L18.8442 23.416L18.8477 23.406L18.8513 23.3959L18.8548 23.3858L18.8584 23.3756L18.862 23.3653L18.8657 23.355L18.8693 23.3447L18.873 23.3342L18.8766 23.3238L18.8803 23.3133L18.8841 23.3027L18.8878 23.292L18.8916 23.2813L18.8954 23.2706L18.8992 23.2598L18.903 23.2489L18.9068 23.238L18.9107 23.227L18.9146 23.216L18.9185 23.2049L18.9224 23.1937L18.9263 23.1825L18.9303 23.1712L18.9343 23.1599L18.9383 23.1485L18.9423 23.1371L18.9464 23.1256L18.9504 23.114L18.9545 23.1024L18.9586 23.0907L18.9627 23.079L18.9669 23.0672L18.9711 23.0553L18.9753 23.0434L18.9795 23.0314L18.9837 23.0194L18.988 23.0073L18.9922 22.9952L18.9965 22.9829L19.0009 22.9707L19.0052 22.9583L19.0096 22.9459L19.0139 22.9335L19.0183 22.921L19.0228 22.9084L19.0272 22.8957L19.0317 22.883L19.0362 22.8703L19.0407 22.8574L19.0452 22.8445L19.0498 22.8316L19.0543 22.8186L19.0589 22.8055L19.0636 22.7924L19.0682 22.7792L19.0729 22.7659L19.0776 22.7526L19.0823 22.7392L19.087 22.7257L19.0918 22.7122L19.0965 22.6986L19.1013 22.685L19.1062 22.6713L19.111 22.6575L19.1159 22.6437L19.1208 22.6298L19.1257 22.6158L19.1306 22.6018L19.1356 22.5877L19.1406 22.5735L19.1456 22.5593L19.1506 22.545L19.1556 22.5307L19.1607 22.5162L19.1658 22.5017L19.1709 22.4872L19.1761 22.4726L19.1812 22.4579L19.1864 22.4431L19.1916 22.4283L19.1969 22.4134L19.2021 22.3985L19.2074 22.3835L19.2127 22.3684L19.218 22.3532L19.2234 22.338L19.2288 22.3227L19.2342 22.3074L19.2396 22.2919L19.245 22.2765L19.2505 22.2609L19.256 22.2453L19.2615 22.2296L19.2671 22.2138L19.2727 22.198L19.2782 22.1821L19.2839 22.1661L19.2895 22.1501L19.2952 22.134L19.3009 22.1178L19.3066 22.1015L19.3123 22.0852L19.3181 22.0688L19.3239 22.0524L19.3297 22.0359L19.3355 22.0193L19.3414 22.0026L19.3473 21.9858L19.3532 21.969L19.3591 21.9522L19.3651 21.9352L19.3711 21.9182L19.3771 21.9011L19.3831 21.8839L19.3892 21.8667L19.3953 21.8494L19.4014 21.832L19.4075 21.8145L19.4137 21.797L19.4199 21.7794L19.4261 21.7618L19.4323 21.744L19.4386 21.7262L19.4449 21.7083L19.4512 21.6903L19.4576 21.6723L19.4639 21.6542L19.4703 21.636L19.4768 21.6178L19.4832 21.5994L19.4897 21.581L19.4962 21.5625L19.5027 21.544L19.5093 21.5254L19.5158 21.5067L19.5224 21.4879L19.5291 21.469L19.5357 21.4501L19.5424 21.4311L19.5491 21.412L19.5559 21.3929L19.5626 21.3736L19.5694 21.3543L19.5762 21.335L19.5831 21.3155L19.5899 21.296C20.1259 19.7724 20.7197 18.9389 21.3209 18.4703C21.8965 18.0217 22.6412 17.7812 23.7624 17.7812H40.2376C41.3588 17.7812 42.1035 18.0217 42.6791 18.4703C43.2803 18.9389 43.8741 19.7724 44.4101 21.296L44.4169 21.3155L44.4238 21.335L44.4306 21.3543L44.4374 21.3736L44.4441 21.3929L44.4509 21.412L44.4576 21.4311L44.4643 21.4501L44.4709 21.469L44.4776 21.4879L44.4842 21.5067L44.4907 21.5254L44.4973 21.544L44.5038 21.5625L44.5103 21.581L44.5168 21.5994L44.5233 21.6178L44.5297 21.636L44.5361 21.6542L44.5424 21.6723L44.5488 21.6903L44.5551 21.7083L44.5614 21.7262L44.5677 21.744L44.5739 21.7617L44.5801 21.7794L44.5863 21.797L44.5925 21.8145L44.5986 21.832L44.6047 21.8494L44.6108 21.8667L44.6169 21.8839L44.6229 21.9011L44.6289 21.9182L44.6349 21.9352L44.6409 21.9522L44.6468 21.969L44.6527 21.9858L44.6586 22.0026L44.6645 22.0193L44.6703 22.0358L44.6761 22.0524L44.6819 22.0688L44.6877 22.0852L44.6934 22.1015L44.6991 22.1178L44.7048 22.134L44.7105 22.1501L44.7161 22.1661L44.7218 22.1821L44.7273 22.198L44.7329 22.2138L44.7385 22.2296L44.744 22.2453L44.7495 22.2609L44.755 22.2765L44.7604 22.2919L44.7658 22.3074L44.7712 22.3227L44.7766 22.338L44.782 22.3532L44.7873 22.3684L44.7926 22.3835L44.7979 22.3985L44.8031 22.4134L44.8084 22.4283L44.8136 22.4431L44.8188 22.4579L44.8239 22.4726L44.8291 22.4872L44.8342 22.5017L44.8393 22.5162L44.8444 22.5307L44.8494 22.545L44.8544 22.5593L44.8594 22.5735L44.8644 22.5877L44.8694 22.6018L44.8743 22.6158L44.8792 22.6298L44.8841 22.6437L44.889 22.6575L44.8938 22.6713L44.8987 22.685L44.9035 22.6986L44.9082 22.7122L44.913 22.7257L44.9177 22.7392L44.9224 22.7526L44.9271 22.7659L44.9318 22.7792L44.9364 22.7924L44.9411 22.8055L44.9457 22.8186L44.9502 22.8316L44.9548 22.8445L44.9593 22.8574L44.9638 22.8703L44.9683 22.883L44.9728 22.8957L44.9772 22.9084L44.9817 22.921L44.9861 22.9335L44.9904 22.9459L44.9948 22.9583L44.9991 22.9707L45.0035 22.9829L45.0078 22.9952L45.012 23.0073L45.0163 23.0194L45.0205 23.0314L45.0247 23.0434L45.0289 23.0553L45.0331 23.0672L45.0373 23.079L45.0414 23.0907L45.0455 23.1024L45.0496 23.114L45.0536 23.1256L45.0577 23.1371L45.0617 23.1485L45.0657 23.1599L45.0697 23.1712L45.0737 23.1825L45.0776 23.1937L45.0815 23.2049L45.0854 23.216L45.0893 23.227L45.0932 23.238L45.097 23.2489L45.1008 23.2598L45.1046 23.2706L45.1084 23.2813L45.1122 23.292L45.1159 23.3027L45.1197 23.3133L45.1234 23.3238L45.127 23.3342L45.1307 23.3447L45.1343 23.355L45.138 23.3653L45.1416 23.3756L45.1452 23.3858L45.1487 23.3959L45.1523 23.406L45.1558 23.416L45.1593 23.426L45.1628 23.4359L45.1663 23.4458L45.1697 23.4556L45.1732 23.4653L45.1766 23.475L45.18 23.4847L45.1833 23.4943L45.1867 23.5038L45.19 23.5133L45.1933 23.5228L45.1967 23.5321L45.1999 23.5415L45.2032 23.5507L45.2064 23.56L45.2097 23.5691L45.2129 23.5783L45.2161 23.5873L45.2192 23.5963L45.2224 23.6053L45.2255 23.6142L45.2286 23.6231L45.2317 23.6319L45.2348 23.6406L45.2379 23.6494L45.2409 23.658L45.244 23.6666L45.247 23.6752L45.25 23.6837L45.2529 23.6921L45.2559 23.7005L45.2588 23.7089L45.2617 23.7172L45.2646 23.7254L45.2675 23.7336L45.2704 23.7418L45.2733 23.7499L45.2761 23.758L45.2789 23.766L45.2817 23.7739L45.2845 23.7818L45.2873 23.7897L45.29 23.7975L45.2927 23.8053L45.2954 23.813L45.2981 23.8207L45.3008 23.8283L45.3035 23.8359L45.3061 23.8434L45.3088 23.8509L45.3114 23.8583L45.314 23.8657L45.3166 23.873L45.3191 23.8803L45.3217 23.8876L45.3242 23.8947L45.3267 23.9019L45.3292 23.909L45.3317 23.9161L45.3342 23.9231L45.3366 23.93L45.3391 23.937L45.3415 23.9438L45.3439 23.9507L45.3463 23.9575L45.3486 23.9642L45.351 23.9709L45.3533 23.9776L45.3557 23.9842L45.358 23.9907L45.3603 23.9972L45.3625 24.0037L45.3648 24.0102L45.367 24.0165L45.3693 24.0229L45.3715 24.0292L45.3737 24.0354L45.3759 24.0417L45.378 24.0478L45.3802 24.054L45.3823 24.06L45.3845 24.0661L45.3866 24.0721L45.3887 24.078L45.3908 24.084L45.3928 24.0898L45.3949 24.0957L45.3969 24.1015L45.3989 24.1072L45.4009 24.1129L45.4029 24.1186L45.4049 24.1242L45.4069 24.1298L45.4088 24.1353L45.4108 24.1408L45.4127 24.1463L45.4146 24.1517L45.4165 24.1571L45.4184 24.1624L45.4202 24.1677L45.4221 24.173L45.4239 24.1782L45.4257 24.1834L45.4276 24.1886L45.4293 24.1937L45.4311 24.1987L45.4329 24.2038L45.4347 24.2088L45.4364 24.2137L45.4381 24.2186L45.4398 24.2235L45.4415 24.2283L45.4432 24.2331L45.4449 24.2379L45.4466 24.2426L45.4482 24.2473L45.4498 24.2519L45.4515 24.2565L45.4531 24.2611L45.4547 24.2657L45.4563 24.2702L45.4578 24.2746L45.4594 24.279L45.4609 24.2834L45.4625 24.2878L45.464 24.2921L45.4655 24.2964L45.467 24.3006L45.4685 24.3048L45.4699 24.309L45.4714 24.3132L45.4728 24.3173L45.4743 24.3213L45.4757 24.3254L45.4771 24.3294L45.4785 24.3333L45.4799 24.3373L45.4812 24.3412L45.4826 24.345L45.4839 24.3489L45.4853 24.3527L45.4866 24.3564L45.4879 24.3602L45.4892 24.3639L45.4905 24.3675L45.4918 24.3711L45.493 24.3747L45.4943 24.3783L45.4955 24.3818L45.4968 24.3853L45.498 24.3888L45.4992 24.3922L45.5004 24.3956L45.5016 24.399L45.5028 24.4024L45.5039 24.4057L45.5051 24.4089L45.5062 24.4122L45.5073 24.4154L45.5085 24.4186L45.5096 24.4217L45.5107 24.4249L45.5118 24.4279L45.5128 24.431L45.5139 24.434L45.515 24.437L45.516 24.44L45.517 24.443L45.5181 24.4459L45.5191 24.4488L45.5201 24.4516L45.5211 24.4544L45.5221 24.4572L45.523 24.46L45.524 24.4627L45.5249 24.4654L45.5259 24.4681L45.5268 24.4708L45.5277 24.4734L45.5287 24.476L45.5296 24.4786L45.5305 24.4811L45.5313 24.4836L45.5322 24.4861L45.5331 24.4886L45.5339 24.491L45.5348 24.4934L45.5356 24.4958L45.5364 24.4981L45.5373 24.5005L45.5381 24.5028L45.5389 24.505L45.5397 24.5073L45.5404 24.5095L45.5412 24.5117L45.542 24.5139L45.5427 24.516L45.5435 24.5181L45.5442 24.5202L45.5449 24.5223L45.5457 24.5243L45.5464 24.5264L45.5471 24.5284L45.5478 24.5303L45.5485 24.5323L45.5491 24.5342L45.5498 24.5361L45.5505 24.538L45.5511 24.5398L45.5518 24.5417L45.5524 24.5435L45.553 24.5452L45.5536 24.547L45.5542 24.5487L45.5549 24.5505L45.5554 24.5521L45.556 24.5538L45.5566 24.5555L45.5572 24.5571L45.5577 24.5587L45.5583 24.5603L45.5588 24.5618L45.5594 24.5634L45.5599 24.5649L45.5605 24.5664L45.561 24.5678L45.5615 24.5693L45.562 24.5707L45.5625 24.5721L45.563 24.5735L45.5635 24.5749L45.5639 24.5763L45.5644 24.5776L45.5649 24.5789L45.5653 24.5802L45.5658 24.5815L45.5662 24.5827L45.5666 24.5839L45.5671 24.5852L45.5675 24.5864L45.5679 24.5875L45.5683 24.5887L45.5687 24.5898L45.5691 24.5909L45.5695 24.592L45.5699 24.5931L45.5702 24.5942L45.5706 24.5952L45.571 24.5963L45.5713 24.5973L45.5717 24.5983L45.572 24.5993L45.5724 24.6002L45.5727 24.6012L45.573 24.6021L45.5733 24.603L45.5737 24.6039L45.574 24.6048L45.5743 24.6056L45.5746 24.6065L45.5749 24.6073L45.5751 24.6081L45.5754 24.6089L45.5757 24.6097L45.576 24.6105L45.5762 24.6112L45.5765 24.612L45.5768 24.6127L45.577 24.6134L45.5772 24.6141L45.5775 24.6148L45.5777 24.6155L45.5779 24.6161L45.5782 24.6168L45.5784 24.6174L45.5786 24.618L45.5788 24.6186L45.579 24.6192L45.5792 24.6197L45.5794 24.6203L45.5796 24.6209L45.5798 24.6214L45.58 24.6219L45.5802 24.6224L45.5803 24.6229L45.5805 24.6234L45.5807 24.6239L45.5808 24.6243L45.581 24.6248L45.5811 24.6252L45.5813 24.6256L45.5814 24.626L45.5816 24.6265L45.5817 24.6268L45.5819 24.6272L45.582 24.6276L46.2913 26.7556L46.4394 27.2001L46.8143 27.4812C48.1907 28.5135 49.0927 29.381 49.6628 30.2776C50.2076 31.1345 50.5 32.0989 50.5 33.4241V37.7098C50.5 40.0373 48.6132 41.9241 46.2857 41.9241H17.7143C15.3868 41.9241 13.5 40.0373 13.5 37.7098V33.4241C13.5 31.9446 13.6722 30.9968 14.1144 30.2021C14.5595 29.402 15.3828 28.5723 17.0575 27.5675Z" stroke="#272727" stroke-width="3"/>
<circle cx="21.2824" cy="34.1339" r="3.57143" fill="#053A3C"/>
<circle cx="42.7121" cy="34.1339" r="3.57143" fill="#053A3C"/>
<path d="M49.1462 25.8516C49.6985 25.8516 50.1462 25.4038 50.1462 24.8516C50.1462 24.2993 49.6985 23.8516 49.1462 23.8516V25.8516ZM46.2891 25.8516H49.1462V23.8516H46.2891V25.8516Z" fill="#272727"/>
<path d="M14.8538 23.8516C14.3015 23.8516 13.8538 24.2993 13.8538 24.8516C13.8538 25.4038 14.3015 25.8516 14.8538 25.8516V23.8516ZM17.7109 23.8516H14.8538V25.8516H17.7109V23.8516Z" fill="#272727"/>
<rect x="26.2891" y="33.4219" width="11.4286" height="2.85714" rx="1.42857" fill="#053A3C"/>
<rect x="23.4297" y="22" width="17.1429" height="4.28571" rx="2" stroke="#272727" stroke-width="3"/>
</svg>
