<svg width="24" height="24" viewBox="0 0 24 24" fill="none" xmlns="http://www.w3.org/2000/svg">
<path fill-rule="evenodd" clip-rule="evenodd" d="M19.7331 5.55576C20.089 5.19986 20.089 4.62283 19.7331 4.26693C19.3772 3.91102 18.8001 3.91102 18.4442 4.26693L11.9999 10.7112L5.55576 4.26706C5.19986 3.91116 4.62283 3.91116 4.26693 4.26706C3.91102 4.62297 3.91102 5.2 4.26693 5.5559L10.7111 12.0001L4.26705 18.4441C3.91115 18.8 3.91115 19.377 4.26705 19.7329C4.62295 20.0888 5.19999 20.0888 5.55589 19.7329L11.9999 13.2889L18.4441 19.7331C18.8 20.089 19.377 20.089 19.7329 19.7331C20.0888 19.3772 20.0888 18.8001 19.7329 18.4442L13.2888 12.0001L19.7331 5.55576Z" fill="white"/>
</svg>
