<svg width="14" height="14" viewBox="0 0 14 14" fill="none" xmlns="http://www.w3.org/2000/svg">
<path id="Union" fill-rule="evenodd" clip-rule="evenodd" d="M10.8871 0.506973C11.5492 -0.16566 12.6227 -0.16566 13.2848 0.506973C13.9469 1.17961 13.9469 2.27016 13.2848 2.94279L9.39766 6.89178L13.5027 11.0622C14.1648 11.7348 14.1648 12.8254 13.5027 13.498C12.8406 14.1707 11.7672 14.1707 11.1051 13.498L7 9.3276L2.89492 13.498C2.23282 14.1707 1.15936 14.1707 0.497261 13.498C-0.164834 12.8254 -0.164834 11.7348 0.497261 11.0622L4.60234 6.89178L0.715234 2.94279C0.0531393 2.27016 0.0531393 1.17961 0.715234 0.506973C1.37733 -0.16566 2.4508 -0.16566 3.11289 0.506973L7 4.45596L10.8871 0.506973Z" fill="#707070"/>
</svg>
