<svg width="24" height="24" viewBox="0 0 24 24" fill="none" xmlns="http://www.w3.org/2000/svg">
<path fill-rule="evenodd" clip-rule="evenodd" d="M16.0463 6.33521C16.4932 5.88827 17.2179 5.88827 17.6648 6.33521C18.1117 6.78215 18.1117 7.50678 17.6648 7.95372L13.6185 12L17.6648 16.0463C18.1117 16.4932 18.1117 17.2179 17.6648 17.6648C17.2179 18.1117 16.4932 18.1117 16.0463 17.6648L12 13.6185L7.95372 17.6648C7.50678 18.1117 6.78214 18.1117 6.3352 17.6648C5.88826 17.2179 5.88827 16.4932 6.3352 16.0463L10.3815 12L6.33521 7.95372C5.88827 7.50678 5.88827 6.78214 6.33521 6.3352C6.78215 5.88826 7.50678 5.88827 7.95372 6.3352L12 10.3815L16.0463 6.33521Z" fill="#656565"/>
</svg>
