<svg width="18" height="19" viewBox="0 0 18 19" fill="none" xmlns="http://www.w3.org/2000/svg">
<g id="Group">
<path id="Vector" d="M4.55469 7.42535C4.55469 6.79661 4.80445 6.19363 5.24904 5.74904C5.69363 5.30445 6.29661 5.05469 6.92535 5.05469H14.6285C14.9398 5.05469 15.2481 5.11601 15.5357 5.23514C15.8233 5.35428 16.0846 5.5289 16.3048 5.74904C16.5249 5.96918 16.6995 6.23052 16.8187 6.51814C16.9378 6.80576 16.9991 7.11403 16.9991 7.42535V15.1285C16.9991 15.4398 16.9378 15.7481 16.8187 16.0357C16.6995 16.3233 16.5249 16.5846 16.3048 16.8048C16.0846 17.0249 15.8233 17.1995 15.5357 17.3187C15.2481 17.4378 14.9398 17.4991 14.6285 17.4991H6.92535C6.61403 17.4991 6.30576 17.4378 6.01814 17.3187C5.73052 17.1995 5.46918 17.0249 5.24904 16.8048C5.0289 16.5846 4.85428 16.3233 4.73514 16.0357C4.61601 15.7481 4.55469 15.4398 4.55469 15.1285V7.42535Z" stroke="#707070" stroke-width="1.5" stroke-linecap="round" stroke-linejoin="round"/>
<path id="Vector_2" d="M1.89956 13.7107C1.62667 13.5556 1.39969 13.3311 1.24169 13.0599C1.08369 12.7887 1.0003 12.4805 1 12.1667V3.27778C1 2.3 1.8 1.5 2.77778 1.5H11.6667C12.3333 1.5 12.696 1.84222 13 2.38889" stroke="#707070" stroke-width="1.5" stroke-linecap="round" stroke-linejoin="round"/>
</g>
</svg>
