<svg width="24" height="24" viewBox="0 0 24 24" fill="none" xmlns="http://www.w3.org/2000/svg">
<g id="Group 1000011824">
<circle id="Ellipse 90" cx="12" cy="12" r="12" fill="#0F7375"/>
<path id="Union" d="M12.4598 6.1678C12.191 5.94407 11.809 5.94407 11.5401 6.1678L6.27771 10.5465C5.73436 10.9984 6.04175 11.9098 6.73759 11.9098H7.58348V17.2344C7.58348 17.6572 7.91306 18 8.31956 18H9.79174C10.1982 18 10.5278 17.6572 10.5278 17.2344V14.9377C10.5278 14.5149 10.8574 14.1721 11.2639 14.1721H12.7361C13.1426 14.1721 13.4722 14.5149 13.4722 14.9377V17.2344C13.4722 17.6572 13.8018 18 14.2083 18H15.6804C16.0869 18 16.4165 17.6572 16.4165 17.2344V11.9098H17.2624C17.9582 11.9098 18.2656 10.9984 17.7223 10.5465L12.4598 6.1678Z" fill="white"/>
</g>
</svg>
