<svg width="24" height="25" viewBox="0 0 24 25" fill="none" xmlns="http://www.w3.org/2000/svg">
<path d="M21 19.5V5.5C21 4.4 20.1 3.5 19 3.5H5C3.9 3.5 3 4.4 3 5.5V19.5C3 20.6 3.9 21.5 5 21.5H19C20.1 21.5 21 20.6 21 19.5ZM8.9 14.48L11 17.01L14.1 13.02C14.3 12.76 14.7 12.76 14.9 13.03L18.41 17.71C18.4657 17.7843 18.4996 17.8726 18.508 17.9651C18.5163 18.0576 18.4987 18.1506 18.4572 18.2336C18.4157 18.3167 18.3519 18.3865 18.2729 18.4353C18.1939 18.4841 18.1029 18.51 18.01 18.51H6.02C5.6 18.51 5.37 18.03 5.63 17.7L8.12 14.5C8.31 14.24 8.69 14.23 8.9 14.48Z" fill="#707070"/>
</svg>
