<svg width="20" height="21" viewBox="0 0 20 21" fill="none" xmlns="http://www.w3.org/2000/svg">
<g id="&#235;&#185;&#132;&#235;&#176;&#128; &#236;&#149;&#132;&#236;&#157;&#180;&#236;&#189;&#152;">
<path id="Vector" d="M9.9987 2.16406C11.1038 2.16406 12.1636 2.60305 12.945 3.38445C13.7264 4.16585 14.1654 5.22566 14.1654 6.33073V8.83073C14.8284 8.83073 15.4643 9.09412 15.9331 9.56296C16.402 10.0318 16.6654 10.6677 16.6654 11.3307V16.3307C16.6654 16.9938 16.402 17.6297 15.9331 18.0985C15.4643 18.5673 14.8284 18.8307 14.1654 18.8307H5.83203C5.16899 18.8307 4.53311 18.5673 4.06426 18.0985C3.59542 17.6297 3.33203 16.9938 3.33203 16.3307V11.3307C3.33203 10.6677 3.59542 10.0318 4.06426 9.56296C4.53311 9.09412 5.16899 8.83073 5.83203 8.83073V6.33073C5.83203 5.22566 6.27102 4.16585 7.05242 3.38445C7.83382 2.60305 8.89363 2.16406 9.9987 2.16406ZM9.9987 12.1641C9.57822 12.1639 9.17323 12.3227 8.86491 12.6086C8.55659 12.8946 8.36773 13.2864 8.3362 13.7057L8.33203 13.8307C8.33203 14.1604 8.42978 14.4826 8.61292 14.7567C8.79605 15.0308 9.05635 15.2444 9.36089 15.3705C9.66544 15.4967 10.0005 15.5297 10.3238 15.4654C10.6472 15.4011 10.9441 15.2423 11.1772 15.0092C11.4103 14.7762 11.569 14.4792 11.6333 14.1559C11.6976 13.8326 11.6646 13.4975 11.5385 13.1929C11.4124 12.8884 11.1987 12.6281 10.9246 12.4449C10.6506 12.2618 10.3283 12.1641 9.9987 12.1641ZM9.9987 3.83073C9.33566 3.83073 8.69977 4.09412 8.23093 4.56296C7.76209 5.0318 7.4987 5.66769 7.4987 6.33073V8.83073H12.4987V6.33073C12.4987 5.66769 12.2353 5.0318 11.7665 4.56296C11.2976 4.09412 10.6617 3.83073 9.9987 3.83073Z" fill="#A6A6A6"/>
</g>
</svg>
