<svg width="22" height="22" viewBox="0 0 22 22" fill="none" xmlns="http://www.w3.org/2000/svg">
<g id="Vector">
<path d="M9.00022 8C9.00022 8.55229 8.5525 9 8.00022 9C7.44793 9 7.00022 8.55229 7.00022 8C7.00022 7.44772 7.44793 7 8.00022 7C8.5525 7 9.00022 7.44772 9.00022 8Z" fill="#0F7375"/>
<path d="M15.0002 8C15.0002 8.55229 14.5525 9 14.0002 9C13.4479 9 13.0002 8.55229 13.0002 8C13.0002 7.44772 13.4479 7 14.0002 7C14.5525 7 15.0002 7.44772 15.0002 8Z" fill="#0F7375"/>
<path fill-rule="evenodd" clip-rule="evenodd" d="M6.55301 12.1058C7.04698 11.8588 7.64766 12.059 7.89465 12.553C8.1996 13.1629 9.10887 14.0002 11.0002 14.0002C12.8916 14.0002 13.8008 13.1629 14.1058 12.553C14.3528 12.059 14.9535 11.8588 15.4474 12.1058C15.9414 12.3528 16.1416 12.9535 15.8946 13.4474C15.1996 14.8375 13.5271 16.0002 11.0002 16.0002C8.47329 16.0002 6.80084 14.8375 6.10579 13.4474C5.8588 12.9535 6.05903 12.3528 6.55301 12.1058Z" fill="#0F7375"/>
<path fill-rule="evenodd" clip-rule="evenodd" d="M11 2C6.02944 2 2 6.02944 2 11C2 15.9706 6.02944 20 11 20C15.9706 20 20 15.9706 20 11C20 6.02944 15.9706 2 11 2ZM0 11C0 4.92487 4.92487 0 11 0C17.0751 0 22 4.92487 22 11C22 17.0751 17.0751 22 11 22C4.92487 22 0 17.0751 0 11Z" fill="#0F7375"/>
</g>
</svg>
