<svg width="24" height="24" viewBox="0 0 24 24" fill="none" xmlns="http://www.w3.org/2000/svg">
<path d="M10.0002 9C10.0002 9.55228 9.5525 10 9.00022 10C8.44793 10 8.00022 9.55228 8.00022 9C8.00022 8.44772 8.44793 8 9.00022 8C9.5525 8 10.0002 8.44772 10.0002 9Z" fill="#A6A6A6"/>
<path d="M16.0002 9C16.0002 9.55228 15.5525 10 15.0002 10C14.4479 10 14.0002 9.55228 14.0002 9C14.0002 8.44772 14.4479 8 15.0002 8C15.5525 8 16.0002 8.44772 16.0002 9Z" fill="#A6A6A6"/>
<path fill-rule="evenodd" clip-rule="evenodd" d="M7.55301 13.1058C8.04698 12.8588 8.64766 13.059 8.89465 13.553C9.1996 14.1629 10.1089 15.0002 12.0002 15.0002C13.8916 15.0002 14.8008 14.1629 15.1058 13.553C15.3528 13.059 15.9535 12.8588 16.4474 13.1058C16.9414 13.3528 17.1416 13.9535 16.8946 14.4474C16.1996 15.8375 14.5271 17.0002 12.0002 17.0002C9.47329 17.0002 7.80084 15.8375 7.10579 14.4474C6.8588 13.9535 7.05903 13.3528 7.55301 13.1058Z" fill="#A6A6A6"/>
<path fill-rule="evenodd" clip-rule="evenodd" d="M12 3C7.02944 3 3 7.02944 3 12C3 16.9706 7.02944 21 12 21C16.9706 21 21 16.9706 21 12C21 7.02944 16.9706 3 12 3ZM1 12C1 5.92487 5.92487 1 12 1C18.0751 1 23 5.92487 23 12C23 18.0751 18.0751 23 12 23C5.92487 23 1 18.0751 1 12Z" fill="#A6A6A6"/>
</svg>
